<svg width="64" height="64" viewBox="0 0 64 64" fill="none" xmlns="http://www.w3.org/2000/svg">
  <g transform="translate(64, 59) scale(-0.0228, -0.0228)" fill="#ffaa00" stroke="none">
<path d="M1271 2254 c-11 -14 -24 -48 -27 -75 -4 -27 -11 -52 -15 -55 -10 -6
-59 91 -59 116 0 10 -3 11 -11 3 -7 -7 -10 -41 -8 -90 l4 -80 -39 -24 c-66
-40 -106 -80 -106 -103 0 -26 -21 -46 -65 -65 -60 -25 -125 -73 -125 -92 0
-23 64 -65 113 -74 l35 -7 -24 -35 c-27 -41 -30 -56 -11 -72 10 -8 17 -7 25 1
7 7 28 11 46 10 22 -2 53 6 86 23 79 40 84 34 76 -88 -13 -190 -20 -231 -42
-262 -35 -48 -47 -111 -44 -220 1 -55 3 -118 3 -140 0 -24 -26 -114 -65 -225
-76 -215 -97 -262 -139 -313 -25 -30 -37 -37 -65 -37 -46 0 -73 -15 -85 -47
-7 -19 -6 -28 3 -34 14 -9 314 -11 371 -3 31 5 40 12 51 38 8 18 32 48 55 67
28 23 56 61 83 114 54 107 148 265 158 265 4 0 32 -11 62 -24 51 -23 54 -26
50 -54 -5 -39 26 -109 72 -159 20 -22 36 -43 36 -46 0 -2 -21 -10 -46 -16 -66
-17 -120 -46 -191 -105 -62 -51 -62 -51 -35 -59 15 -4 119 -7 232 -7 136 1
216 -3 239 -11 40 -14 321 -5 352 12 32 17 41 45 29 91 -7 25 -9 68 -5 108 7
74 -6 169 -34 233 -10 23 -41 67 -67 98 -130 151 -230 274 -303 375 -44 61
-100 129 -124 150 -39 35 -45 46 -52 94 -10 71 -32 114 -89 170 -25 24 -46 50
-46 57 0 25 -62 169 -101 235 -21 36 -39 78 -39 92 0 14 -4 35 -9 48 -5 13
-24 74 -42 135 -19 62 -37 113 -41 113 -4 0 -16 -12 -27 -26z m22 -114 c-2
-39 -7 -79 -13 -90 -5 -10 -10 -26 -10 -35 0 -14 2 -14 25 1 20 13 25 25 26
58 l1 41 20 -64 c19 -61 19 -67 4 -98 -9 -19 -16 -44 -16 -56 0 -21 1 -20 19
6 l18 28 15 -23 c33 -51 76 -147 97 -218 19 -61 31 -84 71 -125 51 -53 70 -88
70 -134 0 -48 28 -125 60 -161 29 -34 30 -34 20 -7 -6 16 -10 31 -10 35 0 17
70 -65 132 -157 39 -57 98 -134 131 -170 33 -36 75 -88 93 -116 17 -27 48 -66
68 -84 58 -56 80 -125 82 -261 1 -63 5 -132 9 -152 7 -35 6 -38 -21 -49 -16
-6 -86 -13 -156 -16 l-128 -6 0 24 c-1 23 -1 23 -15 5 -12 -16 -15 -17 -15 -4
0 34 27 41 130 34 69 -4 101 -3 106 5 4 7 -37 53 -100 113 -120 113 -146 161
-146 262 0 49 4 59 31 86 29 30 33 30 92 24 48 -5 58 -3 49 6 -7 7 -41 14 -77
16 -54 4 -70 1 -86 -14 -33 -30 -49 -69 -49 -121 0 -64 14 -109 50 -167 27
-41 28 -45 8 -32 -12 8 -54 47 -94 85 -59 58 -91 79 -180 121 l-109 51 33 27
c29 25 32 32 32 83 0 31 7 78 15 105 l14 49 -24 -27 c-13 -15 -29 -52 -35 -84
-9 -42 -20 -65 -41 -83 -89 -79 -104 -100 -183 -261 -65 -134 -88 -171 -117
-192 -19 -14 -43 -41 -52 -60 -18 -38 -38 -48 -99 -48 -27 0 -38 4 -38 15 0
10 10 15 34 15 42 0 86 35 121 94 13 22 56 120 94 217 62 155 71 184 71 240 0
35 -5 71 -10 79 -7 11 -10 0 -10 -37 0 -35 -4 -53 -12 -53 -7 0 -32 19 -56 43
l-44 42 6 -31 c5 -23 -2 -50 -33 -115 -22 -46 -58 -129 -81 -183 -23 -55 -66
-147 -95 -206 -52 -104 -55 -107 -92 -113 -59 -10 -103 -8 -103 4 0 8 -5 8
-15 -1 -9 -7 -15 -8 -15 -2 0 13 25 22 65 22 69 0 134 109 225 380 28 85 57
166 64 180 8 16 10 39 5 65 -4 22 -8 88 -8 146 -1 100 1 111 29 165 20 37 34
84 41 133 6 42 17 103 25 136 7 33 14 78 14 100 0 36 4 43 36 60 51 27 74 61
74 106 0 22 -4 39 -10 39 -5 0 -10 -5 -10 -12 0 -6 -7 -19 -16 -29 -15 -17
-18 -16 -46 17 -17 19 -43 42 -59 51 -25 15 -28 22 -23 49 5 26 1 35 -23 54
-32 25 -35 38 -15 63 16 18 42 23 42 7 0 -43 85 44 94 97 13 77 18 93 24 89 4
-2 6 -36 5 -76z m-143 -395 c-7 -8 -16 -15 -21 -15 -5 0 -9 7 -9 15 0 9 9 15
21 15 18 0 19 -2 9 -15z m-60 -39 c0 -3 -4 -8 -10 -11 -5 -3 -10 -1 -10 4 0 6
5 11 10 11 6 0 10 -2 10 -4z m-70 -56 c0 -5 -4 -10 -9 -10 -6 0 -13 5 -16 10
-3 6 1 10 9 10 9 0 16 -4 16 -10z m262 -852 c-2 -7 -33 -87 -69 -178 -91 -226
-126 -275 -193 -268 l-28 3 97 200 c54 110 110 219 125 243 26 42 28 43 49 29
12 -9 21 -21 19 -29z m528 -263 c22 -14 42 -25 46 -25 3 0 18 -9 34 -20 15
-11 29 -17 32 -15 3 3 12 -3 22 -14 17 -18 16 -18 -41 -5 -32 8 -76 14 -98 14
-38 0 -105 31 -105 47 0 5 15 15 33 24 17 9 33 17 35 18 1 0 20 -10 42 -24z
m95 -131 l50 -18 -45 -8 c-26 -4 -52 -16 -62 -28 -16 -20 -21 -20 -78 -9 -48
9 -66 9 -84 -1 -14 -7 -36 -9 -55 -5 -22 5 -35 2 -47 -9 -19 -20 -138 -23
-132 -4 7 20 97 77 147 93 63 20 237 14 306 -11z m-915 -98 c0 -3 -4 -8 -10
-11 -5 -3 -10 -1 -10 4 0 6 5 11 10 11 6 0 10 -2 10 -4z"/>
<path d="M1270 1850 c0 -13 5 -20 13 -17 6 2 12 10 12 17 0 7 -6 15 -12 18 -8
2 -13 -5 -13 -18z"/>
<path d="M1384 1743 c3 -21 8 -72 12 -113 5 -69 4 -79 -20 -120 -57 -98 -89
-174 -93 -218 l-4 -47 24 62 c25 64 59 123 139 236 49 69 51 75 18 57 -17 -9
-20 -6 -25 17 -10 49 -46 163 -52 163 -3 0 -3 -17 1 -37z"/>
<path d="M1260 1605 c0 -22 -7 -69 -14 -105 -27 -127 -27 -128 0 -71 30 60 43
166 26 197 -10 16 -11 13 -12 -21z"/>
<path d="M1180 1258 c-13 -29 -25 -72 -28 -95 -5 -49 4 -96 18 -88 6 4 15 -4
20 -17 8 -19 9 -15 7 22 -1 30 -6 44 -14 43 -19 -4 -16 35 8 112 11 37 18 69
16 71 -2 3 -15 -19 -27 -48z"/>
  </g>
</svg>
